<svg width="131" height="131" viewBox="0 0 131 131" fill="none" xmlns="http://www.w3.org/2000/svg">
<circle cx="65.25" cy="65.6919" r="65" fill="#FFEDDE"/>
<path d="M62.6029 59.267C74.2648 59.267 83.7185 55.623 83.7185 51.1279C83.7185 46.6328 74.2648 42.9888 62.6029 42.9888C50.9411 42.9888 41.4873 46.6328 41.4873 51.1279C41.4873 55.623 50.9411 59.267 62.6029 59.267Z" stroke="black" stroke-width="2" stroke-linecap="round" stroke-linejoin="round"/>
<path d="M83.7183 64.1049V51.1284" stroke="black" stroke-width="2" stroke-linecap="round" stroke-linejoin="round"/>
<path d="M41.4873 51.1284V77.0814C41.4873 81.0841 48.9389 84.2883 58.7637 85.0527" stroke="black" stroke-width="2" stroke-linecap="round" stroke-linejoin="round"/>
<path d="M62.6029 72.09C51.0853 72.2436 41.4873 68.5964 41.4873 64.1045" stroke="black" stroke-width="2" stroke-linecap="round" stroke-linejoin="round"/>
<path d="M91.0126 84.7153L87.7838 87.1555L85.3433 83.9268" stroke="black" stroke-width="2" stroke-linecap="round" stroke-linejoin="round"/>
<path d="M87.6052 86.9133C88.1381 85.8894 88.4998 84.7537 88.648 83.5402C89.3098 78.1118 85.4457 73.1743 80.0171 72.5123C78.299 72.3028 76.6301 72.5466 75.1304 73.15" stroke="black" stroke-width="2" stroke-linecap="round" stroke-linejoin="round"/>
<path d="M66.6143 80.116L69.843 77.6755L72.2835 80.9042" stroke="black" stroke-width="2" stroke-linecap="round" stroke-linejoin="round"/>
<path d="M70.0213 77.9199C69.4883 78.944 69.1266 80.0794 68.9786 81.293C68.3166 86.7216 72.1806 91.6588 77.6092 92.3211C79.3275 92.5307 80.9964 92.2865 82.496 91.6834" stroke="black" stroke-width="2" stroke-linecap="round" stroke-linejoin="round"/>
</svg>
