<svg width="71" height="71" viewBox="0 0 71 71" fill="none" xmlns="http://www.w3.org/2000/svg">
<path d="M12.251 33.0219V50.2517V15.7921V33.0219ZM39.6585 58.8666C40.435 58.8666 41.086 58.5914 41.6113 58.041C42.1366 57.4906 42.3993 56.8086 42.3993 55.995C42.3993 55.1813 42.1366 54.4993 41.6113 53.9489C41.086 53.3985 40.435 53.1233 39.6585 53.1233C38.882 53.1233 38.231 53.3985 37.7057 53.9489C37.1804 54.4993 36.9178 55.1813 36.9178 55.995C36.9178 56.8086 37.1804 57.4906 37.7057 58.041C38.231 58.5914 38.882 58.8666 39.6585 58.8666ZM56.103 30.1503C56.8795 30.1503 57.5305 29.8751 58.0558 29.3247C58.5811 28.7743 58.8437 28.0923 58.8437 27.2786C58.8437 26.465 58.5811 25.783 58.0558 25.2326C57.5305 24.6822 56.8795 24.407 56.103 24.407C55.3264 24.407 54.6755 24.6822 54.1502 25.2326C53.6249 25.783 53.3622 26.465 53.3622 27.2786C53.3622 28.0923 53.6249 28.7743 54.1502 29.3247C54.6755 29.8751 55.3264 30.1503 56.103 30.1503ZM17.7325 30.1503H31.4363V24.407H17.7325V30.1503ZM17.7325 41.6368H31.4363V35.8935H17.7325V41.6368ZM12.251 55.995C10.7436 55.995 9.45318 55.4326 8.37972 54.3079C7.30626 53.1831 6.76953 51.8311 6.76953 50.2517V15.7921C6.76953 14.2127 7.30626 12.8606 8.37972 11.7359C9.45318 10.6112 10.7436 10.0488 12.251 10.0488H56.103C57.6104 10.0488 58.9008 10.6112 59.9743 11.7359C61.0478 12.8606 61.5845 14.2127 61.5845 15.7921H12.251V50.2517H25.9548V55.995H12.251ZM39.6585 64.6099C37.3745 64.6099 35.4332 63.7723 33.8344 62.0972C32.2356 60.4221 31.4363 58.388 31.4363 55.995C31.4363 54.1284 31.9502 52.4533 32.9779 50.9696C34.0057 49.4859 35.319 48.4569 36.9178 47.8826V38.7652H53.3622V35.391C51.7635 34.8167 50.4502 33.7877 49.4224 32.304C48.3946 30.8203 47.8807 29.1452 47.8807 27.2786C47.8807 24.8856 48.6801 22.8515 50.2789 21.1764C51.8777 19.5013 53.819 18.6637 56.103 18.6637C58.3869 18.6637 60.3283 19.5013 61.9271 21.1764C63.5258 22.8515 64.3252 24.8856 64.3252 27.2786C64.3252 29.1452 63.8113 30.8203 62.7836 32.304C61.7558 33.7877 60.4425 34.8167 58.8437 35.391V44.5084H42.3993V47.8826C43.998 48.4569 45.3113 49.4859 46.3391 50.9696C47.3669 52.4533 47.8807 54.1284 47.8807 55.995C47.8807 58.388 47.0814 60.4221 45.4826 62.0972C43.8838 63.7723 41.9425 64.6099 39.6585 64.6099Z" fill="#997862"/>
</svg>
