<svg width="25" height="25" viewBox="0 0 25 25" fill="none" xmlns="http://www.w3.org/2000/svg">
<path d="M7.5 20.5295C6.12121 20.5295 4.94318 20.0012 3.96591 18.9446C2.98864 17.888 2.5 16.5966 2.5 15.0704C2.5 13.7622 2.85606 12.5966 3.56818 11.5736C4.2803 10.5505 5.21212 9.89642 6.36364 9.6113C6.62121 8.40375 7.26515 7.25491 8.29545 6.16476C9.32576 5.07461 10.4242 4.52954 11.5909 4.52954C12.0909 4.52954 12.5189 4.72661 12.875 5.12074C13.2311 5.51487 13.4091 5.98866 13.4091 6.54212V12.6302L14.8636 11.0704L16.1364 12.4792L12.5 16.5044L8.86364 12.4792L10.1364 11.0704L11.5909 12.6302V6.54212C10.4394 6.77692 9.54545 7.39327 8.90909 8.39118C8.27273 9.38908 7.95455 10.4163 7.95455 11.4729H7.5C6.62121 11.4729 5.87121 11.8168 5.25 12.5044C4.62879 13.192 4.31818 14.0222 4.31818 14.9949C4.31818 15.9677 4.62879 16.7979 5.25 17.4855C5.87121 18.1731 6.62121 18.517 7.5 18.517H18.4091C19.0455 18.517 19.5833 18.2738 20.0227 17.7874C20.4621 17.301 20.6818 16.7056 20.6818 16.0012C20.6818 15.2968 20.4621 14.7014 20.0227 14.2151C19.5833 13.7287 19.0455 13.4855 18.4091 13.4855H17.0455V11.4729C17.0455 10.6679 16.8788 9.91738 16.5455 9.22136C16.2121 8.52535 15.7727 7.93415 15.2273 7.44778V5.10816C16.3485 5.69516 17.2348 6.56308 17.8864 7.71193C18.5379 8.86078 18.8636 10.1144 18.8636 11.4729C19.9091 11.6071 20.7765 12.1061 21.4659 12.9698C22.1553 13.8335 22.5 14.844 22.5 16.0012C22.5 17.2591 22.1023 18.3283 21.3068 19.2088C20.5114 20.0893 19.5455 20.5295 18.4091 20.5295H7.5Z" fill="#A1A1A1"/>
</svg>
