<svg width="24" height="25" viewBox="0 0 24 25" fill="none" xmlns="http://www.w3.org/2000/svg">
<path d="M8 18.5295H16V16.5295H8V18.5295ZM8 14.5295H16V12.5295H8V14.5295ZM6 22.5295C5.45 22.5295 4.97917 22.3337 4.5875 21.942C4.19583 21.5504 4 21.0795 4 20.5295V4.52954C4 3.97954 4.19583 3.50871 4.5875 3.11704C4.97917 2.72537 5.45 2.52954 6 2.52954H14L20 8.52954V20.5295C20 21.0795 19.8042 21.5504 19.4125 21.942C19.0208 22.3337 18.55 22.5295 18 22.5295H6ZM13 9.52954V4.52954H6V20.5295H18V9.52954H13Z" fill="black"/>
</svg>
