<svg width="25" height="25" viewBox="0 0 25 25" fill="none" xmlns="http://www.w3.org/2000/svg">
<path d="M11.5 21.7546C9.48333 21.5046 7.8125 20.6254 6.4875 19.1171C5.1625 17.6087 4.5 15.8379 4.5 13.8046C4.5 12.7046 4.71667 11.6504 5.15 10.6421C5.58333 9.63373 6.2 8.75457 7 8.00457L8.425 9.42957C7.79167 9.99623 7.3125 10.6546 6.9875 11.4046C6.6625 12.1546 6.5 12.9546 6.5 13.8046C6.5 15.2712 6.96667 16.5671 7.9 17.6921C8.83333 18.8171 10.0333 19.5046 11.5 19.7546V21.7546ZM13.5 21.7546V19.7546C14.95 19.4879 16.1458 18.7962 17.0875 17.6796C18.0292 16.5629 18.5 15.2712 18.5 13.8046C18.5 12.1379 17.9167 10.7212 16.75 9.55457C15.5833 8.3879 14.1667 7.80457 12.5 7.80457H12.425L13.525 8.90457L12.125 10.3046L8.625 6.80457L12.125 3.30457L13.525 4.70457L12.425 5.80457H12.5C14.7333 5.80457 16.625 6.57957 18.175 8.12957C19.725 9.67957 20.5 11.5712 20.5 13.8046C20.5 15.8212 19.8375 17.5837 18.5125 19.0921C17.1875 20.6004 15.5167 21.4879 13.5 21.7546Z" fill="#A1A1A1"/>
</svg>
