<svg width="24" height="25" viewBox="0 0 24 25" fill="none" xmlns="http://www.w3.org/2000/svg">
<path d="M10.6635 9.65252C14.9375 9.65252 18.4023 8.31381 18.4023 6.66244C18.4023 5.01107 14.9375 3.67236 10.6635 3.67236C6.38955 3.67236 2.9248 5.01107 2.9248 6.66244C2.9248 8.31381 6.38955 9.65252 10.6635 9.65252Z" stroke="black" stroke-width="1.5" stroke-linecap="round" stroke-linejoin="round"/>
<path d="M18.4023 11.4298V6.6626" stroke="black" stroke-width="1.5" stroke-linecap="round" stroke-linejoin="round"/>
<path d="M2.9248 6.6626V16.197C2.9248 17.6675 5.65576 18.8446 9.25649 19.1254" stroke="black" stroke-width="1.5" stroke-linecap="round" stroke-linejoin="round"/>
<path d="M10.6635 14.3634C6.44241 14.4198 2.9248 13.0799 2.9248 11.4297" stroke="black" stroke-width="1.5" stroke-linecap="round" stroke-linejoin="round"/>
<path d="M21.0751 19.0016L19.8918 19.8981L18.9973 18.7119" stroke="black" stroke-width="1.5" stroke-linecap="round" stroke-linejoin="round"/>
<path d="M19.8266 19.8091C20.0219 19.4329 20.1544 19.0157 20.2087 18.5699C20.4513 16.5757 19.0351 14.7618 17.0456 14.5186C16.4159 14.4416 15.8043 14.5312 15.2546 14.7528" stroke="black" stroke-width="1.5" stroke-linecap="round" stroke-linejoin="round"/>
<path d="M12.1333 17.3119L13.3166 16.4153L14.211 17.6014" stroke="black" stroke-width="1.5" stroke-linecap="round" stroke-linejoin="round"/>
<path d="M13.3824 16.5051C13.187 16.8814 13.0544 17.2985 13.0002 17.7443C12.7576 19.7386 14.1737 21.5524 16.1633 21.7957C16.793 21.8727 17.4046 21.783 17.9542 21.5614" stroke="black" stroke-width="1.5" stroke-linecap="round" stroke-linejoin="round"/>
</svg>
