<svg width="24" height="25" viewBox="0 0 24 25" fill="none" xmlns="http://www.w3.org/2000/svg">
<path d="M8.6123 19.8989H15.7637V17.2172C15.7637 16.2338 15.4136 15.3921 14.7133 14.6918C14.0131 13.9916 13.1713 13.6415 12.188 13.6415C11.2047 13.6415 10.3629 13.9916 9.66266 14.6918C8.96242 15.3921 8.6123 16.2338 8.6123 17.2172V19.8989ZM12.188 11.8536C13.1713 11.8536 14.0131 11.5035 14.7133 10.8033C15.4136 10.103 15.7637 9.26127 15.7637 8.27795V5.59619H8.6123V8.27795C8.6123 9.26127 8.96242 10.103 9.66266 10.8033C10.3629 11.5035 11.2047 11.8536 12.188 11.8536ZM5.03662 21.6868V19.8989H6.82446V17.2172C6.82446 16.3083 7.03677 15.4554 7.46138 14.6583C7.88599 13.8612 8.47822 13.2243 9.23805 12.7476C8.47822 12.2708 7.88599 11.6339 7.46138 10.8368C7.03677 10.0397 6.82446 9.18677 6.82446 8.27795V5.59619H5.03662V3.80835H19.3394V5.59619H17.5515V8.27795C17.5515 9.18677 17.3392 10.0397 16.9146 10.8368C16.49 11.6339 15.8978 12.2708 15.1379 12.7476C15.8978 13.2243 16.49 13.8612 16.9146 14.6583C17.3392 15.4554 17.5515 16.3083 17.5515 17.2172V19.8989H19.3394V21.6868H5.03662Z" fill="#747474"/>
</svg>
