<svg width="32" height="33" viewBox="0 0 32 33" fill="none" xmlns="http://www.w3.org/2000/svg">
<path d="M25.8 13.4161C24.8933 8.81613 20.8533 5.36279 16 5.36279C12.1467 5.36279 8.8 7.54946 7.13333 10.7495C3.12 11.1761 0 14.5761 0 18.6961C0 23.1095 3.58667 26.6961 8 26.6961H25.3333C29.0133 26.6961 32 23.7095 32 20.0295C32 16.5095 29.2667 13.6561 25.8 13.4161ZM25.3333 24.0295H8C5.05333 24.0295 2.66667 21.6428 2.66667 18.6961C2.66667 15.9628 4.70667 13.6828 7.41333 13.4028L8.84 13.2561L9.50667 11.9895C10.7733 9.54946 13.2533 8.02946 16 8.02946C19.4933 8.02946 22.5067 10.5095 23.1867 13.9361L23.5867 15.9361L25.6267 16.0828C27.7067 16.2161 29.3333 17.9628 29.3333 20.0295C29.3333 22.2295 27.5333 24.0295 25.3333 24.0295ZM10.6667 17.3628H14.0667V21.3628H17.9333V17.3628H21.3333L16 12.0295L10.6667 17.3628Z" fill="#FF6600"/>
</svg>
