<svg width="71" height="71" viewBox="0 0 71 71" fill="none" xmlns="http://www.w3.org/2000/svg">
<path d="M50.6694 60.3599L46.9233 56.7548L51.1377 52.7703H34.6148V47.7105H51.1377L46.9233 43.6627L50.6694 40.1209L61.3724 50.2404L50.6694 60.3599ZM58.6967 35.0612H53.3452V19.8819H47.9936V27.4716H21.236V19.8819H15.8845V55.3002H29.2633V60.3599H15.8845C14.4128 60.3599 13.153 59.8645 12.105 58.8736C11.057 57.8827 10.533 56.6916 10.533 55.3002V19.8819C10.533 18.4905 11.057 17.2994 12.105 16.3085C13.153 15.3176 14.4128 14.8222 15.8845 14.8222H27.0558C27.5463 13.3464 28.5052 12.1342 29.9322 11.1855C31.3593 10.2368 32.9202 9.76245 34.6148 9.76245C36.3987 9.76245 37.993 10.2368 39.3977 11.1855C40.8025 12.1342 41.7502 13.3464 42.2407 14.8222H53.3452C54.8168 14.8222 56.0767 15.3176 57.1247 16.3085C58.1727 17.2994 58.6967 18.4905 58.6967 19.8819V35.0612ZM34.6148 19.8819C35.373 19.8819 36.0084 19.6395 36.5213 19.1546C37.0342 18.6697 37.2906 18.0689 37.2906 17.3521C37.2906 16.6353 37.0342 16.0344 36.5213 15.5495C36.0084 15.0646 35.373 14.8222 34.6148 14.8222C33.8567 14.8222 33.2212 15.0646 32.7083 15.5495C32.1955 16.0344 31.9391 16.6353 31.9391 17.3521C31.9391 18.0689 32.1955 18.6697 32.7083 19.1546C33.2212 19.6395 33.8567 19.8819 34.6148 19.8819Z" fill="#997862"/>
</svg>
