<svg width="131" height="131" viewBox="0 0 131 131" fill="none" xmlns="http://www.w3.org/2000/svg">
<circle cx="65.25" cy="65.6919" r="65" fill="#FFEDDE"/>
<path d="M62.9396 57.6922C56.5187 53.3113 50.5326 56.6555 45.5164 61.8056L56.6191 68.494" stroke="black" stroke-width="2" stroke-linecap="round" stroke-linejoin="round"/>
<path d="M76.2495 71.0024C80.6303 77.4231 77.2861 83.4092 72.1361 88.4255L65.4478 77.3228" stroke="black" stroke-width="2" stroke-linecap="round" stroke-linejoin="round"/>
<path d="M56.6191 68.4609L65.4812 77.323C72.5709 73.0758 80.6304 68.9625 84.309 65.1501C92.2682 57.1909 87.6532 46.2889 87.6532 46.2889C87.6532 46.2889 76.7512 41.6739 68.792 49.6331C64.9796 53.3117 60.8328 61.4046 56.6191 68.4609Z" stroke="black" stroke-width="2" stroke-linecap="round" stroke-linejoin="round"/>
<path d="M61.5017 60.0667L73.8752 72.4401" stroke="black" stroke-width="2" stroke-linecap="round" stroke-linejoin="round"/>
<path d="M78.958 56.6555C79.8813 56.6555 80.6301 55.9068 80.6301 54.9834C80.6301 54.0599 79.8813 53.3113 78.958 53.3113C78.0347 53.3113 77.2859 54.0599 77.2859 54.9834C77.2859 55.9068 78.0347 56.6555 78.958 56.6555Z" stroke="black" stroke-width="2" stroke-linecap="round" stroke-linejoin="round"/>
<path d="M56.1509 84.8802C54.2112 86.7529 45.5164 88.425 45.5164 88.425C45.5164 88.425 47.1885 79.7301 49.0612 77.7905C49.5204 77.2979 50.0742 76.9026 50.6895 76.6283C51.3049 76.3542 51.9691 76.2068 52.6427 76.1949C53.3162 76.183 53.9852 76.3069 54.6099 76.5592C55.2345 76.8113 55.8019 77.1869 56.2782 77.6634C56.7545 78.1397 57.1301 78.7072 57.3824 79.3319C57.6347 79.9562 57.7586 80.6254 57.7467 81.2989C57.7348 81.9724 57.5874 82.6366 57.3132 83.2519C57.039 83.8672 56.6437 84.421 56.1509 84.8802Z" stroke="black" stroke-width="2" stroke-linecap="round" stroke-linejoin="round"/>
</svg>
